<svg width="19" height="16" viewBox="0 0 19 16" fill="none" xmlns="http://www.w3.org/2000/svg">
<path d="M16.7 0.800049H2.3C1.31 0.800049 0.509 1.61005 0.509 2.60005L0.5 13.4C0.5 14.39 1.31 15.2 2.3 15.2H16.7C17.69 15.2 18.5 14.39 18.5 13.4V2.60005C18.5 1.61005 17.69 0.800049 16.7 0.800049ZM16.34 4.62505L9.977 8.60305C9.689 8.78305 9.311 8.78305 9.023 8.60305L2.66 4.62505C2.56975 4.57439 2.49073 4.50594 2.4277 4.42386C2.36467 4.34177 2.31896 4.24775 2.29332 4.14748C2.26768 4.04722 2.26265 3.94279 2.27854 3.84052C2.29443 3.73826 2.3309 3.64028 2.38575 3.55252C2.4406 3.46476 2.51269 3.38904 2.59765 3.32994C2.68262 3.27085 2.77868 3.22961 2.88005 3.20872C2.98141 3.18783 3.08595 3.18772 3.18736 3.2084C3.28876 3.22909 3.38492 3.27013 3.47 3.32905L9.5 7.10005L15.53 3.32905C15.6151 3.27013 15.7112 3.22909 15.8126 3.2084C15.914 3.18772 16.0186 3.18783 16.12 3.20872C16.2213 3.22961 16.3174 3.27085 16.4023 3.32994C16.4873 3.38904 16.5594 3.46476 16.6142 3.55252C16.6691 3.64028 16.7056 3.73826 16.7215 3.84052C16.7373 3.94279 16.7323 4.04722 16.7067 4.14748C16.681 4.24775 16.6353 4.34177 16.5723 4.42386C16.5093 4.50594 16.4302 4.57439 16.34 4.62505Z" fill="#1E1D2D"/>
</svg>
